<svg width="21" height="19" viewBox="0 0 21 19" fill="none" xmlns="http://www.w3.org/2000/svg">
<path d="M14.8125 0.875C13.145 0.875 11.5445 1.65125 10.5 2.87792C9.45538 1.65125 7.85496 0.875 6.18746 0.875C3.23579 0.875 0.916626 3.19417 0.916626 6.14583C0.916626 9.76833 4.17496 12.72 9.11038 17.205L10.5 18.4604L11.8895 17.1954C16.825 12.72 20.0833 9.76833 20.0833 6.14583C20.0833 3.19417 17.7641 0.875 14.8125 0.875ZM10.5958 15.7771L10.5 15.8729L10.4041 15.7771C5.84246 11.6467 2.83329 8.91542 2.83329 6.14583C2.83329 4.22917 4.27079 2.79167 6.18746 2.79167C7.66329 2.79167 9.10079 3.74042 9.60871 5.05333H11.4008C11.8991 3.74042 13.3366 2.79167 14.8125 2.79167C16.7291 2.79167 18.1666 4.22917 18.1666 6.14583C18.1666 8.91542 15.1575 11.6467 10.5958 15.7771Z" fill="#808080"/>
</svg>
